<svg xmlns="http://www.w3.org/2000/svg" width="20" height="20" viewBox="0 0 20 20" fill="none">
  <rect width="20" height="20" rx="4" fill="#7E14FF"/>
  <path fill="#fff" d="M6.2 7.1c0-.9.7-1.6 1.6-1.6h4.4c.9 0 1.6.7 1.6 1.6v.4H6.2v-.4Z"/>
  <path fill="#fff" d="M5.4 8.2h9.2l-.9 6.9c-.1.8-.7 1.4-1.5 1.4H7.8c-.8 0-1.4-.6-1.5-1.4l-.9-6.9Zm1.8 1.6v3.8h1.5V9.8H7.2Zm2.5 0v3.8h1.5V9.8H9.7Z"/>
  <circle cx="13.2" cy="5.2" r="1.1" fill="#EDE6FF"/>
  <path fill="#fff" d="M13.2 4.5l.3.6.7.1-.5.5.1.7-.6-.3-.6.3.1-.7-.5-.5.7-.1.3-.6Z"/>
</svg>
